<?xml version="1.0" encoding="iso-8859-1"?>
<!-- Uploaded to: SVG Repo, www.svgrepo.com, Generator: SVG Repo Mixer Tools -->
<svg version="1.1" id="Layer_1" xmlns="http://www.w3.org/2000/svg" xmlns:xlink="http://www.w3.org/1999/xlink" 
	 viewBox="0 0 512 512" xml:space="preserve">
<g>
	<path style="fill:#999999;" d="M175.542,416.193L409.68,182.054l35.683,35.683c0,0-46.7,41.507-43.411,134.251L175.542,416.193z"/>
	<path style="fill:#999999;" d="M175.542,416.193L409.68,182.054l-35.691-35.667c0,0-41.507,46.7-134.25,43.411L175.542,416.193z"/>
</g>
<polygon style="fill:#E21B1B;" points="399.591,79.734 512,192.143 461.428,233.81 357.924,130.306 "/>
<g>
	
		<ellipse transform="matrix(-0.7071 0.7071 -0.7071 -0.7071 748.5836 213.0658)" style="fill:#FFFFFF;" cx="330.164" cy="261.57" rx="21.401" ry="21.601"/>
	<polygon style="fill:#FFFFFF;" points="179.27,390.911 173.614,385.262 250.42,308.464 277.486,308.584 340.827,245.243 
		346.491,250.9 280.79,316.601 253.716,316.481 	"/>
</g>
<rect y="416.265" style="fill:#222020;" width="398.039" height="16.001"/>
</svg>